<?xml version="1.0" standalone="no"?>
<!DOCTYPE svg PUBLIC "-//W3C//DTD SVG 20010904//EN"
 "http://www.w3.org/TR/2001/REC-SVG-20010904/DTD/svg10.dtd">
<svg version="1.0" xmlns="http://www.w3.org/2000/svg"
 width="401.000000pt" height="400.000000pt" viewBox="0 0 401.000000 400.000000"
 preserveAspectRatio="xMidYMid meet">
<metadata>
Created by potrace 1.16, written by Peter Selinger 2001-2019
</metadata>
<g transform="translate(0.000000,400.000000) scale(0.100000,-0.100000)"
fill="#000000" stroke="none">
<path d="M0 2000 l0 -2000 2000 0 2000 0 0 2000 0 2000 -2000 0 -2000 0 0
-2000z m1874 1728 c3 -13 7 -81 11 -152 10 -234 49 -462 114 -676 16 -52 37
-121 46 -152 10 -32 22 -55 26 -52 5 3 9 109 9 235 0 281 -10 321 -72 288 -21
-11 -21 -11 -15 126 4 76 7 199 7 273 l0 135 122 -6 c75 -4 124 -11 129 -18 3
-6 7 -61 8 -122 1 -61 4 -113 6 -117 4 -7 10 -56 21 -182 l6 -78 -35 0 c-26 0
-39 -6 -47 -19 -16 -30 -13 -479 3 -511 12 -24 39 -31 75 -19 10 3 13 -57 15
-299 2 -261 0 -303 -13 -307 -19 -5 -208 -45 -214 -45 -9 0 -24 74 -36 169
-14 124 -57 319 -126 571 -84 310 -115 406 -125 387 -13 -22 -22 -475 -11
-512 8 -27 12 -30 48 -28 l39 3 -3 -317 c-2 -235 -6 -319 -15 -324 -24 -13
-279 -71 -290 -66 -9 3 -12 87 -12 328 l0 324 30 3 c36 4 54 18 67 52 11 29
29 481 21 523 -6 27 -8 29 -44 24 -32 -4 -39 -2 -39 11 1 57 64 530 72 538 7
7 150 31 190 33 21 1 29 -4 32 -21z m533 -18 c166 -43 150 -34 161 -93 6 -28
18 -86 27 -127 8 -41 20 -106 25 -145 6 -38 13 -82 16 -97 5 -26 3 -28 -25
-28 -51 0 -57 -43 -39 -265 17 -214 26 -237 82 -228 l34 5 2 -274 1 -275 -108
-31 c-141 -40 -194 -54 -198 -50 -1 2 -5 137 -8 301 l-6 297 35 0 c28 0 36 5
44 26 13 33 12 142 -1 324 -12 167 -22 193 -72 188 l-32 -3 -6 150 c-4 83 -10
194 -14 248 -4 53 -5 97 -1 97 3 0 41 -9 83 -20z m-831 -100 c-8 -52 -22 -162
-30 -245 -9 -82 -18 -168 -21 -191 l-6 -41 -72 1 c-63 0 -80 -4 -126 -30 -65
-36 -106 -101 -117 -182 l-7 -53 29 7 c43 10 142 55 155 70 23 28 31 14 25
-38 -3 -29 -6 -78 -6 -108 0 -64 -12 -92 -32 -72 -8 8 -43 12 -99 12 l-86 0
-6 -53 c-18 -153 74 -201 247 -128 43 19 63 23 59 11 -1 -3 -4 -156 -8 -340
l-6 -335 -82 -7 c-45 -4 -134 -11 -197 -17 -63 -6 -155 -11 -204 -11 l-89 0 7
183 c3 100 9 239 13 309 l6 127 41 3 c36 3 43 7 58 38 9 19 24 85 32 145 9 61
23 155 31 209 26 168 18 205 -35 176 -12 -6 -24 -9 -27 -7 -5 5 52 211 66 237
4 8 23 65 41 125 48 161 45 157 152 199 258 100 294 113 300 107 4 -4 1 -49
-6 -101z m1161 -14 l93 -45 36 -78 c20 -43 81 -169 135 -281 55 -111 99 -204
99 -206 0 -2 20 -46 44 -98 23 -51 49 -111 57 -132 l14 -39 5 89 c12 221 -32
424 -117 542 -13 17 -19 32 -14 32 17 0 144 -114 212 -189 101 -114 220 -287
164 -241 -25 21 -25 8 1 -55 14 -33 44 -107 66 -165 51 -130 61 -146 103 -160
32 -11 34 -15 54 -98 26 -111 54 -285 49 -310 -3 -20 -3 -20 -63 0 -33 10
-100 29 -150 42 l-90 23 -7 105 c-6 99 -27 235 -47 306 l-10 32 42 -2 c41 -3
42 -2 39 27 -6 62 -98 305 -117 312 -6 2 -9 -42 -7 -119 4 -142 -11 -305 -39
-432 -30 -136 -29 -136 -84 24 -117 335 -305 743 -305 660 0 -5 5 -31 10 -57
6 -26 19 -106 29 -176 22 -149 35 -174 88 -179 l38 -3 6 -110 c4 -60 9 -169
13 -242 l5 -132 -57 -6 c-31 -3 -100 -13 -153 -21 -53 -8 -101 -14 -106 -14
-6 0 -12 96 -16 247 -4 137 -8 257 -9 268 -2 16 3 20 27 21 17 0 35 1 42 2 30
4 25 125 -13 344 -18 96 -38 128 -83 128 -28 0 -29 2 -36 68 -6 56 -42 256
-62 340 -7 31 6 29 114 -22z m-1737 -195 c22 -43 6 -164 -80 -591 -10 -52 -28
-153 -41 -225 -31 -184 -95 -441 -125 -503 -52 -106 -99 -142 -188 -142 -68 0
-135 25 -232 88 l-73 47 -1 48 c0 51 35 297 51 359 10 37 10 38 53 32 54 -8
62 2 107 136 17 52 44 128 60 168 16 40 29 84 29 98 0 23 -3 26 -25 21 -14 -2
-24 -1 -23 4 2 5 32 50 68 101 109 155 343 378 397 378 7 0 17 -9 23 -19z
m2188 -1442 c2 -107 1 -245 -3 -307 -6 -104 -9 -113 -25 -109 -42 11 -50 -16
-85 -273 -36 -254 -83 -442 -147 -585 -79 -174 -159 -273 -225 -278 -23 -2
-31 4 -45 33 -27 52 -25 81 26 505 23 192 39 430 32 470 -7 33 -9 36 -34 30
l-27 -5 0 322 0 322 109 22 c61 13 111 22 113 20 2 -2 5 -144 6 -317 l2 -314
-30 -5 c-42 -7 -49 -36 -70 -273 -18 -205 -17 -295 4 -320 17 -21 82 -3 114
31 48 52 83 190 107 417 13 120 6 175 -20 175 -10 0 -22 -5 -25 -10 -16 -26
-20 7 -12 107 5 59 7 201 4 314 l-5 207 107 9 c58 5 111 9 116 8 6 -1 11 -77
13 -196z m182 191 c80 -10 304 -60 356 -80 22 -9 24 -15 24 -72 0 -58 -20
-267 -36 -381 -6 -44 -9 -48 -28 -41 -12 3 -42 9 -67 11 -71 7 -100 -25 -134
-147 -14 -52 -42 -146 -62 -208 -33 -105 -34 -114 -19 -131 15 -16 12 -25 -40
-122 -60 -112 -152 -254 -187 -289 -26 -26 -113 -90 -122 -90 -4 0 9 28 28 63
41 74 108 229 133 310 13 41 27 65 47 79 16 12 40 45 54 74 30 66 71 225 84
328 11 90 4 106 -58 127 -29 9 -40 8 -75 -10 -23 -11 -44 -19 -45 -17 -2 2 1
43 7 90 7 51 11 175 8 301 l-3 215 25 0 c14 0 64 -5 110 -10z m-826 -107 l58
-18 -6 -75 c-3 -41 -10 -176 -17 -300 -6 -124 -13 -231 -15 -238 -3 -10 -11
-9 -35 4 -37 19 -92 14 -119 -11 -54 -48 -86 -222 -77 -412 9 -208 52 -264
150 -197 21 14 41 23 44 20 3 -2 0 -42 -6 -87 -6 -46 -14 -147 -18 -225 l-6
-143 -51 -42 c-72 -59 -90 -65 -120 -45 -74 48 -105 464 -76 1041 27 527 86
744 204 745 17 0 57 -8 90 -17z m-2233 -78 c26 -20 69 -43 96 -52 26 -9 49
-17 51 -18 2 -2 5 -56 8 -121 3 -102 18 -223 40 -337 6 -26 4 -28 -14 -18 -30
16 -32 14 -31 -21 1 -74 19 -99 99 -139 73 -36 75 -37 78 -16 1 12 -6 45 -16
72 -13 38 -25 54 -49 65 -38 18 -39 21 -58 201 -18 167 -20 289 -5 289 6 0 24
-7 40 -15 17 -9 64 -24 107 -34 l76 -18 4 -144 c2 -79 10 -189 18 -243 8 -55
13 -101 11 -103 -2 -3 -13 0 -25 6 -28 15 -35 0 -26 -57 12 -84 75 -287 103
-332 15 -25 39 -44 56 -45 4 0 21 -34 36 -76 30 -82 104 -233 128 -262 48 -55
-63 8 -138 79 -20 19 -41 34 -46 34 -19 0 -167 151 -236 240 -86 111 -145 205
-125 197 19 -7 20 -12 -43 148 -27 66 -56 146 -65 177 -17 61 -48 108 -70 108
-14 0 -17 9 -40 142 -17 103 -31 328 -20 328 4 0 29 -16 56 -35z m1711 -35
c114 -32 175 -240 166 -565 -4 -140 -9 -171 -33 -245 -24 -75 -34 -91 -85
-140 l-58 -55 33 -65 c52 -102 80 -124 126 -100 10 6 19 7 19 3 0 -4 -7 -111
-15 -238 -8 -126 -15 -239 -15 -250 0 -18 -8 -20 -100 -22 l-100 -3 0 178 c0
97 -3 208 -7 245 -6 64 -5 68 13 65 28 -5 29 31 4 108 l-22 66 -37 -6 c-20 -3
-45 -6 -55 -6 -17 0 -18 -6 -13 -67 8 -93 14 -106 46 -100 l26 5 3 -245 3
-246 -88 7 c-48 4 -89 8 -90 10 -3 3 -52 429 -53 459 0 5 9 6 19 2 14 -4 25 1
37 20 15 24 16 49 11 252 -5 184 -9 230 -22 250 -12 18 -23 24 -40 21 -22 -5
-23 -2 -27 66 -3 39 -4 174 -4 301 l1 230 61 11 c33 6 65 14 72 18 14 8 151
45 172 45 8 1 32 -4 52 -9z m-412 -273 c0 -101 3 -232 7 -290 6 -102 5 -107
-14 -107 -31 0 -43 -42 -43 -153 0 -120 16 -306 30 -342 7 -17 17 -25 34 -25
23 0 25 -4 30 -77 4 -43 14 -145 22 -226 9 -82 13 -151 10 -155 -6 -5 -155 23
-163 31 -14 15 -83 355 -83 412 0 18 5 25 20 25 11 0 23 7 27 15 8 22 -26 445
-38 467 -5 10 -20 18 -33 18 -33 0 -36 28 -36 312 l0 237 33 5 c106 18 151 27
155 31 3 3 14 5 24 5 17 0 18 -12 18 -183z m-540 108 c47 0 98 2 113 5 l28 5
6 -220 c3 -121 6 -238 7 -260 1 -37 -1 -40 -26 -43 -23 -3 -28 -8 -28 -30 0
-66 110 -441 135 -462 8 -6 31 -10 52 -8 36 3 38 1 41 -27 6 -72 35 -229 57
-310 l23 -87 -32 6 c-17 3 -54 15 -82 27 -46 18 -52 24 -62 62 -82 319 -85
329 -106 343 -12 7 -36 17 -54 20 -28 6 -32 4 -32 -14 0 -34 60 -202 102 -286
44 -88 45 -88 -59 -30 -35 19 -63 39 -63 44 0 5 -6 15 -13 22 -24 24 -147 299
-147 329 0 5 13 3 30 -6 48 -25 64 -20 56 18 -4 17 -9 102 -12 187 -7 214 -8
218 -47 228 -31 8 -32 10 -39 73 -3 35 -9 147 -13 248 l-8 183 44 -8 c24 -5
82 -9 129 -9z"/>
<path d="M696 2962 c-20 -19 -93 -236 -121 -360 -9 -37 -18 -75 -21 -84 -4
-14 1 -18 21 -18 72 0 161 76 195 167 41 111 43 235 4 273 -22 20 -67 33 -78
22z"/>
<path d="M530 1165 c0 -20 78 -146 96 -156 14 -7 45 -51 73 -103 51 -96 105
-181 122 -192 5 -3 -5 18 -24 48 -19 29 -53 88 -77 131 l-42 78 27 -7 c30 -8
30 -9 -2 86 -15 41 -22 48 -89 83 -72 37 -84 41 -84 32z"/>
<path d="M1837 1273 c-9 -8 -9 -92 0 -173 l6 -62 48 4 c57 6 121 45 149 91 36
58 22 109 -35 133 -35 14 -156 20 -168 7z"/>
<path d="M1074 1216 c-9 -23 3 -257 14 -268 4 -4 22 -11 40 -14 25 -5 32 -3
32 9 0 17 -70 279 -76 286 -2 2 -6 -4 -10 -13z"/>
</g>
</svg>
